# xmcd
#
# Track frame offsets: 
#        150
#        20866
#        45713
#        70523
#        93821
#        118397
#        142202
#        164888
#        182609
#        204794
#
# Disc length: 3164 seconds
#
# Revision: 0
# Processed by: cddbd v1.5.2PL0 Copyright (c) Steve Scherf et al.
# Submitted via: ExactAudioCopyFreeDBPlugin 1.0
#
DISCID=910c5a0a
DTITLE=Thanh Long Bass - Anh con no em
DYEAR=1900
DGENRE=
TTITLE0=Anh con no em
TTITLE1=Em hay ngu di
TTITLE2=Mua thu cho em
TTITLE3=Ru tinh
TTITLE4=Phut cuoi
TTITLE5=Chieu nay khong co em
TTITLE6=Mot minh
TTITLE7=Mong duoi hoa
TTITLE8=Mat biec
TTITLE9=Con duong tinh ta di
EXTD=
EXTT0=
EXTT1=
EXTT2=
EXTT3=
EXTT4=
EXTT5=
EXTT6=
EXTT7=
EXTT8=
EXTT9=
PLAYORDER=
